<svg xmlns="http://www.w3.org/2000/svg" xmlns:xlink="http://www.w3.org/1999/xlink" preserveAspectRatio="xMidYMid" width="170" height="170" viewBox="0 0 170 170">
  <defs>
    <style>
      .cls-1 {
        fill: #000;
        fill-rule: evenodd;
      }
    </style>
  </defs>
  <path d="M146.779,34.231 C146.088,35.279 145.386,36.354 144.668,37.449 C129.602,60.426 113.009,82.982 93.913,102.950 C91.001,105.996 88.012,108.964 84.988,111.889 C76.232,120.313 66.982,128.190 57.116,135.292 C58.373,137.179 59.395,139.109 60.094,140.922 C60.769,142.681 61.207,144.285 61.439,145.479 C61.682,146.664 61.721,147.439 61.721,147.439 C61.721,147.439 60.952,147.401 59.779,147.153 C58.597,146.920 57.014,146.478 55.264,145.796 C53.787,145.215 52.242,144.347 50.698,143.363 C49.826,142.805 48.946,142.255 48.094,141.600 C46.887,140.674 45.707,139.690 44.619,138.589 C42.961,136.908 41.543,135.033 40.321,133.138 C40.187,132.932 40.026,132.738 39.901,132.529 C38.918,130.941 38.076,129.345 37.491,127.826 C36.812,126.062 36.370,124.470 36.140,123.273 C35.896,122.091 35.852,121.316 35.852,121.316 C35.852,121.316 36.618,121.363 37.790,121.607 C38.972,121.843 40.557,122.285 42.301,122.974 C44.312,123.765 46.467,124.989 48.556,126.485 C49.201,126.012 49.865,125.574 50.502,125.086 C59.474,118.208 67.942,110.762 76.056,102.954 C79.085,100.037 82.069,97.068 84.988,94.046 C99.762,78.731 113.208,62.107 125.627,44.733 C129.023,39.975 131.947,35.279 134.752,31.017 C140.013,24.186 145.167,17.626 150.989,11.103 C152.174,9.774 156.626,6.295 156.983,4.394 C156.979,4.429 156.311,7.953 154.515,13.889 C152.554,20.367 150.885,28.752 146.779,34.231 ZM155.056,3.989 L156.664,4.322 L155.041,4.012 L155.056,3.989 ZM25.301,37.449 C24.582,36.354 23.879,35.283 23.191,34.231 C19.084,28.752 17.411,20.367 15.454,13.889 C13.662,7.957 12.994,4.429 12.987,4.394 C13.343,6.291 17.793,9.774 18.979,11.103 C24.799,17.626 29.954,24.190 35.215,31.017 C38.022,35.279 40.945,39.971 44.345,44.729 C55.988,61.024 68.551,76.661 82.250,91.179 C79.306,94.232 76.340,97.200 73.360,100.071 C55.399,80.820 39.644,59.331 25.301,37.449 ZM16.291,152.825 C24.674,146.905 28.694,143.820 36.388,137.439 C37.644,139.310 39.110,141.151 40.847,142.782 C41.983,143.851 43.220,144.797 44.490,145.672 C45.394,146.292 46.317,146.804 47.240,147.315 C38.773,154.526 34.327,158.009 25.027,164.674 C23.699,165.569 22.158,165.999 20.633,165.999 C18.185,165.999 15.773,164.898 14.303,162.860 C11.918,159.544 12.885,155.072 16.291,152.825 ZM96.719,105.655 C103.975,112.478 111.528,118.995 119.464,125.078 C120.101,125.566 120.768,125.997 121.413,126.477 C123.500,124.982 125.650,123.757 127.668,122.963 C129.418,122.277 130.995,121.835 132.181,121.599 C133.348,121.355 134.115,121.308 134.115,121.308 C134.115,121.308 134.073,122.083 133.831,123.265 C133.593,124.462 133.156,126.058 132.476,127.818 C131.889,129.337 131.053,130.933 130.070,132.522 C129.940,132.731 129.779,132.925 129.648,133.126 C128.428,135.025 127.012,136.900 125.350,138.582 C124.260,139.682 123.078,140.666 121.874,141.592 C121.018,142.247 120.143,142.797 119.272,143.355 C117.725,144.339 116.179,145.211 114.705,145.788 C112.959,146.471 111.374,146.912 110.188,147.145 C109.014,147.393 108.247,147.431 108.247,147.431 C108.247,147.431 108.289,146.657 108.531,145.471 C108.764,144.277 109.198,142.681 109.874,140.914 C110.568,139.097 111.597,137.171 112.848,135.273 C104.045,128.941 95.717,121.998 87.812,114.590 C90.859,111.653 93.833,108.673 96.719,105.655 ZM129.119,142.778 C130.853,141.147 132.319,139.306 133.578,137.435 C141.272,143.813 145.290,146.901 153.671,152.821 C157.086,155.064 158.053,159.544 155.663,162.853 C153.272,166.169 148.398,166.998 144.937,164.674 C135.635,158.005 131.191,154.522 122.726,147.307 C123.654,146.796 124.575,146.284 125.473,145.665 C126.743,144.789 127.975,143.844 129.119,142.778 Z" class="cls-1"/>
</svg>
